<?xml version="1.0" encoding="UTF-8" standalone="no"?>
<svg
   xmlns:dc="http://purl.org/dc/elements/1.1/"
   xmlns:cc="http://creativecommons.org/ns#"
   xmlns:rdf="http://www.w3.org/1999/02/22-rdf-syntax-ns#"
   xmlns:svg="http://www.w3.org/2000/svg"
   xmlns="http://www.w3.org/2000/svg"
   viewBox="0 0 583.82001 169.55467"
   height="169.55467"
   width="583.82001"
   xml:space="preserve"
   id="svg2"
   version="1.1"><metadata
     id="metadata8"><rdf:RDF><cc:Work
         rdf:about=""><dc:format>image/svg+xml</dc:format><dc:type
           rdf:resource="http://purl.org/dc/dcmitype/StillImage" /></cc:Work></rdf:RDF></metadata><defs
     id="defs6"><clipPath
       id="clipPath14"
       clipPathUnits="userSpaceOnUse"><path
         id="path12"
         d="M 0,0 H 841.89 V 595.276 H 0 Z" /></clipPath><clipPath
       id="clipPath22"
       clipPathUnits="userSpaceOnUse"><path
         id="path20"
         d="M 0,595.276 H 841.89 V 0 H 0 Z" /></clipPath></defs><g
     clip-path="url(#clipPath14)"
     transform="matrix(1.3333333,0,0,-1.3333333,-276.78667,480.25333)"
     id="g10"><g
       id="g16"><g
         clip-path="url(#clipPath22)"
         id="g18"><g
           transform="translate(252.0215,253.3508)"
           id="g24"><path
             id="path26"
             style="fill:#071e26;fill-opacity:1;fill-rule:nonzero;stroke:none"
             d="m 0,0 h 2.586 c 2.055,0 3.118,1.4 3.118,4.32 0,2.952 -1.094,4.504 -3.133,4.504 H 0 Z M -0.989,-0.912 V 9.736 h 3.575 c 2.601,0 4.108,-1.885 4.108,-5.308 0,-3.439 -1.522,-5.34 -4.108,-5.34 z" /></g><g
           transform="translate(261.17,263.0871)"
           id="g28"><path
             id="path30"
             style="fill:#071e26;fill-opacity:1;fill-rule:nonzero;stroke:none"
             d="M 0,0 H 6.784 V -0.912 H 0.988 v -3.499 h 3.59 v -0.913 h -3.59 v -4.427 h 5.796 v -0.912 H 0 Z" /></g><g
           transform="translate(274.6387,256.5305)"
           id="g32"><path
             id="path34"
             style="fill:#071e26;fill-opacity:1;fill-rule:nonzero;stroke:none"
             d="M 0,0 2.115,6.557 H 3.879 V -4.092 H 2.891 V 5.689 L 0.624,-1.049 H -0.638 L -2.89,5.645 V -4.092 H -3.878 V 6.557 h 1.749 z" /></g><g
           transform="translate(288.0313,257.7785)"
           id="g36"><path
             id="path38"
             style="fill:#071e26;fill-opacity:1;fill-rule:nonzero;stroke:none"
             d="m 0,0 c 0,2.905 -1.142,4.502 -3.287,4.502 -2.145,0 -3.301,-1.597 -3.301,-4.502 0,-2.921 1.156,-4.58 3.301,-4.58 C -1.142,-4.58 0,-2.921 0,0 m 0.988,0 c 0,-3.515 -1.491,-5.492 -4.275,-5.492 -2.799,0 -4.289,1.977 -4.289,5.492 0,3.498 1.49,5.415 4.289,5.415 2.799,0 4.275,-1.917 4.275,-5.415" /></g><g
           transform="translate(298.791,255.5724)"
           id="g40"><path
             id="path42"
             style="fill:#071e26;fill-opacity:1;fill-rule:nonzero;stroke:none"
             d="m 0,0 c 0,-1.674 -1.688,-3.286 -3.924,-3.286 -2.511,0 -4.26,2.054 -4.26,5.492 0,3.423 1.735,5.4 4.32,5.4 C -1.521,7.606 0,5.963 0,3.803 h -0.988 c 0,1.415 -0.929,2.86 -2.845,2.86 -2.038,0 -3.362,-1.612 -3.362,-4.564 0,-2.92 1.293,-4.473 3.331,-4.473 1.917,0 2.876,1.37 2.876,2.374 z" /></g><g
           transform="translate(302.3887,262.175)"
           id="g44"><path
             id="path46"
             style="fill:#071e26;fill-opacity:1;fill-rule:nonzero;stroke:none"
             d="m 0,0 v -4.427 h 2.89 c 1.49,0 2.22,0.623 2.22,2.191 C 5.11,-0.7 4.395,0 2.783,0 Z M -0.99,-9.736 V 0.912 h 3.773 c 2.114,0 3.317,-1.126 3.317,-3.18 0,-1.81 -0.929,-2.874 -2.694,-3.042 L 6.601,-9.736 H 5.399 L 2.205,-5.341 H 0 v -4.395 z" /></g><g
           transform="translate(313.2246,257.4592)"
           id="g48"><path
             id="path50"
             style="fill:#071e26;fill-opacity:1;fill-rule:nonzero;stroke:none"
             d="M 0,0 H 3.164 L 1.581,5.05 Z M 3.452,-0.913 H -0.29 L -1.583,-5.021 H -2.572 L 0.775,5.628 H 2.389 L 5.734,-5.021 H 4.746 Z" /></g><g
           transform="translate(320.9571,263.0871)"
           id="g52"><path
             id="path54"
             style="fill:#071e26;fill-opacity:1;fill-rule:nonzero;stroke:none"
             d="M 0,0 H 7.788 V -0.912 H 4.382 v -9.736 h -0.99 v 9.736 l -3.392,0 z" /></g><g
           transform="translate(335.4151,253.3508)"
           id="g56"><path
             id="path58"
             style="fill:#071e26;fill-opacity:1;fill-rule:nonzero;stroke:none"
             d="M 0,0 H 2.83 V -0.912 H -3.803 V 0 h 2.815 V 8.824 H -3.803 V 9.736 H 2.83 V 8.824 H 0 Z" /></g><g
           transform="translate(348.3662,262.175)"
           id="g60"><path
             id="path62"
             style="fill:#071e26;fill-opacity:1;fill-rule:nonzero;stroke:none"
             d="M 0,0 -5.659,-8.839 H 0 v -0.912 h -6.786 v 0.912 L -1.081,0 H -6.786 V 0.912 H 0 Z" /></g><g
           transform="translate(351.5811,263.0871)"
           id="g64"><path
             id="path66"
             style="fill:#071e26;fill-opacity:1;fill-rule:nonzero;stroke:none"
             d="M 0,0 H 6.784 V -0.912 H 0.988 v -3.499 h 3.59 v -0.913 h -3.59 v -4.427 h 5.796 v -0.912 H 0 Z" /></g><g
           transform="translate(362.5244,253.3508)"
           id="g68"><path
             id="path70"
             style="fill:#071e26;fill-opacity:1;fill-rule:nonzero;stroke:none"
             d="m 0,0 h 2.586 c 2.055,0 3.118,1.4 3.118,4.32 0,2.952 -1.094,4.504 -3.133,4.504 H 0 Z M -0.988,-0.912 V 9.736 h 3.574 c 2.601,0 4.108,-1.885 4.108,-5.308 0,-3.439 -1.521,-5.34 -4.108,-5.34 z" /></g><g
           transform="translate(382.753,262.175)"
           id="g72"><path
             id="path74"
             style="fill:#071e26;fill-opacity:1;fill-rule:nonzero;stroke:none"
             d="m 0,0 v -4.427 h 2.89 c 1.49,0 2.22,0.623 2.22,2.191 C 5.11,-0.7 4.396,0 2.784,0 Z M -0.99,-9.736 V 0.912 h 3.774 c 2.113,0 3.316,-1.126 3.316,-3.18 0,-1.81 -0.929,-2.874 -2.694,-3.042 L 6.601,-9.736 H 5.4 L 2.206,-5.341 H 0 v -4.395 z" /></g><g
           transform="translate(391.7647,263.0871)"
           id="g76"><path
             id="path78"
             style="fill:#071e26;fill-opacity:1;fill-rule:nonzero;stroke:none"
             d="M 0,0 H 6.784 V -0.912 H 0.988 v -3.499 h 3.59 v -0.913 h -3.59 v -4.427 h 5.796 v -0.912 H 0 Z" /></g><g
           transform="translate(403.6358,257.4592)"
           id="g80"><path
             id="path82"
             style="fill:#071e26;fill-opacity:1;fill-rule:nonzero;stroke:none"
             d="M 0,0 H 3.164 L 1.581,5.05 Z M 3.452,-0.913 H -0.29 L -1.583,-5.021 H -2.572 L 0.775,5.628 H 2.389 L 5.734,-5.021 H 4.746 Z" /></g><g
           transform="translate(411.961,252.4387)"
           id="g84"><path
             id="path86"
             style="fill:#071e26;fill-opacity:1;fill-rule:nonzero;stroke:none"
             d="M 0,0 V 10.648 H 0.99 V 0.912 H 6.785 V 0 Z" /></g><g
           transform="translate(431.9473,263.0871)"
           id="g88"><path
             id="path90"
             style="fill:#071e26;fill-opacity:1;fill-rule:nonzero;stroke:none"
             d="M 0,0 H 6.784 V -0.912 H 0.988 v -3.499 h 3.59 v -0.913 h -3.59 v -4.427 h 5.796 v -0.912 H 0 Z" /></g><g
           transform="translate(448.2149,255.6183)"
           id="g92"><path
             id="path94"
             style="fill:#071e26;fill-opacity:1;fill-rule:nonzero;stroke:none"
             d="m 0,0 c 0,1.231 -0.808,1.855 -2.755,1.855 -2.494,0 -3.758,1.035 -3.758,2.739 0,1.901 1.568,2.981 3.607,2.981 2.631,0 3.621,-1.779 3.621,-3.331 h -0.99 c 0,1.034 -0.639,2.418 -2.617,2.418 -1.475,0 -2.631,-0.775 -2.631,-2.053 0,-1.157 0.928,-1.795 2.876,-1.795 2.494,0 3.635,-1.035 3.635,-2.814 0,-2.1 -1.597,-3.332 -3.758,-3.332 -2.662,0 -3.864,1.871 -3.864,3.437 h 0.989 c 0,-1.064 0.868,-2.525 2.844,-2.525 C -1.264,-2.42 0,-1.552 0,0" /></g><g
           transform="translate(451.5518,263.0871)"
           id="g96"><path
             id="path98"
             style="fill:#071e26;fill-opacity:1;fill-rule:nonzero;stroke:none"
             d="M 0,0 H 7.788 V -0.912 H 4.382 v -9.736 h -0.99 v 9.736 l -3.392,0 z" /></g><g
           transform="translate(463.9092,257.4592)"
           id="g100"><path
             id="path102"
             style="fill:#071e26;fill-opacity:1;fill-rule:nonzero;stroke:none"
             d="M 0,0 H 3.165 L 1.582,5.05 Z M 3.453,-0.913 H -0.289 L -1.583,-5.021 H -2.571 L 0.776,5.628 H 2.389 L 5.735,-5.021 H 4.746 Z" /></g><g
           transform="translate(471.6416,263.0871)"
           id="g104"><path
             id="path106"
             style="fill:#071e26;fill-opacity:1;fill-rule:nonzero;stroke:none"
             d="M 0,0 H 7.789 V -0.912 H 4.382 v -9.736 H 3.393 v 9.736 l -3.393,0 z" /></g><g
           transform="translate(482.1758,263.0871)"
           id="g108"><path
             id="path110"
             style="fill:#071e26;fill-opacity:1;fill-rule:nonzero;stroke:none"
             d="M 0,0 H 6.784 V -0.912 H 0.988 v -3.499 h 3.59 v -0.913 h -3.59 v -4.427 h 5.796 v -0.912 H 0 Z" /></g><g
           transform="translate(506.1905,253.3508)"
           id="g112"><path
             id="path114"
             style="fill:#071e26;fill-opacity:1;fill-rule:nonzero;stroke:none"
             d="M 0,0 H 2.83 V -0.912 H -3.802 V 0 h 2.814 V 8.824 H -3.802 V 9.736 H 2.83 V 8.824 H 0 Z" /></g><g
           transform="translate(517.6817,252.4533)"
           id="g116"><path
             id="path118"
             style="fill:#071e26;fill-opacity:1;fill-rule:nonzero;stroke:none"
             d="m 0,0 -4.03,9.736 v -9.751 h -0.99 v 10.649 h 0.609 v 0.015 h 1.065 L 0.609,0.897 v 9.737 h 0.99 V -0.015 h -0.99 l 0,0.015 z" /></g><g
           transform="translate(522.8594,263.0871)"
           id="g120"><path
             id="path122"
             style="fill:#071e26;fill-opacity:1;fill-rule:nonzero;stroke:none"
             d="M 0,0 2.83,-9.568 5.66,0 H 6.725 L 3.484,-10.648 H 2.176 L -1.064,0 Z" /></g><g
           transform="translate(532.4034,263.0871)"
           id="g124"><path
             id="path126"
             style="fill:#071e26;fill-opacity:1;fill-rule:nonzero;stroke:none"
             d="M 0,0 H 6.784 V -0.912 H 0.988 v -3.499 h 3.59 v -0.913 h -3.59 v -4.427 h 5.796 v -0.912 H 0 Z" /></g><g
           transform="translate(548.6719,255.6183)"
           id="g128"><path
             id="path130"
             style="fill:#071e26;fill-opacity:1;fill-rule:nonzero;stroke:none"
             d="m 0,0 c 0,1.231 -0.807,1.855 -2.754,1.855 -2.494,0 -3.758,1.035 -3.758,2.739 0,1.901 1.567,2.981 3.607,2.981 2.631,0 3.621,-1.779 3.621,-3.331 h -0.99 c 0,1.034 -0.64,2.418 -2.617,2.418 -1.475,0 -2.632,-0.775 -2.632,-2.053 0,-1.157 0.929,-1.795 2.877,-1.795 2.494,0 3.635,-1.035 3.635,-2.814 0,-2.1 -1.598,-3.332 -3.758,-3.332 -2.662,0 -3.865,1.871 -3.865,3.437 h 0.99 c 0,-1.064 0.867,-2.525 2.844,-2.525 1.537,0 2.8,0.868 2.8,2.42" /></g><g
           transform="translate(552.0079,263.0871)"
           id="g132"><path
             id="path134"
             style="fill:#071e26;fill-opacity:1;fill-rule:nonzero;stroke:none"
             d="M 0,0 H 7.789 V -0.912 H 4.382 v -9.736 h -0.99 v 9.736 l -3.392,0 z" /></g><g
           transform="translate(566.4649,253.3508)"
           id="g136"><path
             id="path138"
             style="fill:#071e26;fill-opacity:1;fill-rule:nonzero;stroke:none"
             d="M 0,0 H 2.83 V -0.912 H -3.803 V 0 h 2.815 V 8.824 H -3.803 V 9.736 H 2.83 V 8.824 H 0 Z" /></g><g
           transform="translate(577.9561,252.4533)"
           id="g140"><path
             id="path142"
             style="fill:#071e26;fill-opacity:1;fill-rule:nonzero;stroke:none"
             d="M 0,0 -4.031,9.736 V -0.015 H -5.02 v 10.649 h 0.609 v 0.015 h 1.065 L 0.609,0.897 v 9.737 H 1.598 V -0.015 H 0.609 l 0,0.015 z" /></g><g
           transform="translate(590.0411,258.2189)"
           id="g144"><path
             id="path146"
             style="fill:#071e26;fill-opacity:1;fill-rule:nonzero;stroke:none"
             d="m 0,0 v -2.646 c 0,-1.674 -1.688,-3.287 -3.926,-3.287 -2.509,0 -4.259,2.054 -4.259,5.493 0,3.422 1.734,5.4 4.32,5.4 C -1.522,4.96 0,3.316 0,1.156 h -0.989 c 0,1.415 -0.929,2.861 -2.845,2.861 -2.039,0 -3.362,-1.613 -3.362,-4.565 0,-2.92 1.293,-4.473 3.331,-4.473 1.918,0 2.876,1.371 2.876,2.375 v 1.734 H -4.944 V 0 Z" /></g><g
           transform="translate(249.0567,298.1491)"
           id="g148"><path
             id="path150"
             style="fill:#071e26;fill-opacity:1;fill-rule:nonzero;stroke:none"
             d="M 0,0 H -8.631 V 35.48 H 0 c 9.22,0 17.925,-1.106 17.925,-17.703 C 17.925,1.105 9.22,0 0,0 M 0,43.742 H -18.146 V -8.263 H 0 c 13.352,0 27.366,3.614 27.366,26.04 0,22.35 -14.014,25.965 -27.366,25.965" /></g><g
           transform="translate(297.8223,316.2936)"
           id="g152"><path
             id="path154"
             style="fill:#071e26;fill-opacity:1;fill-rule:nonzero;stroke:none"
             d="m 0,0 5.693,19.225 h 4.768 L 16.154,0 Z M 14.304,25.598 H 2.286 -1.697 l -15.712,-52.006 h 9.589 l 5.385,18.147 h 21.097 l 5.385,-18.147 h 9.59 L 17.851,25.598 Z" /></g><g
           transform="translate(359.1035,297.4099)"
           id="g156"><path
             id="path158"
             style="fill:#071e26;fill-opacity:1;fill-rule:nonzero;stroke:none"
             d="m 0,0 c -10.77,0 -16.154,7.525 -16.154,18.516 0,10.917 5.384,18.441 16.154,18.441 10.771,0 16.081,-7.524 16.081,-18.441 C 16.081,7.525 10.771,0 0,0 m 0,45.219 c -16.007,0 -25.67,-11.581 -25.67,-26.703 0,-15.196 9.663,-26.777 25.67,-26.777 15.934,0 25.598,11.581 25.598,26.777 0,15.122 -9.664,26.703 -25.598,26.703" /></g><g
           transform="translate(464.1387,289.8859)"
           id="g160"><path
             id="path162"
             style="fill:#071e26;fill-opacity:1;fill-rule:nonzero;stroke:none"
             d="M 0,0 H 35.186 V 8.263 H 9.516 v 13.646 h 21.982 v 8.262 H 9.516 v 13.572 h 25.67 v 8.262 L 0,52.005 Z" /></g><g
           transform="translate(548.3126,296.258)"
           id="g164"><path
             id="path166"
             style="fill:#071e26;fill-opacity:1;fill-rule:nonzero;stroke:none"
             d="m 0,0 h -2.314 l -18.267,45.633 h -1.116 -12.018 -5.677 V -6.372 h 9.517 l -0.055,45.633 h 2.363 L -9.368,-6.372 H -6.009 6.009 9.442 V 45.633 H 0 Z" /></g><g
           transform="translate(565.9503,333.6291)"
           id="g168"><path
             id="path170"
             style="fill:#071e26;fill-opacity:1;fill-rule:nonzero;stroke:none"
             d="m 0,0 h 17.48 v -43.743 h 9.517 V 0 H 44.332 V 8.262 H 0 Z" /></g><g
           transform="translate(626.8819,337.3049)"
           id="g172"><path
             id="path174"
             style="fill:#071e26;fill-opacity:1;fill-rule:nonzero;stroke:none"
             d="M 0,0 H -1.046 V 1.176 H 0 c 0.915,0 1.48,0 1.48,-0.567 C 1.48,0 0.915,0 0,0 M 2.918,0.937 C 2.918,2.331 1.241,2.613 0,2.613 h -2.483 v -5.75 h 1.437 v 1.699 H 1.48 v -1.699 h 1.438 v 1.764 c 0,0.349 -0.195,0.545 -0.544,0.545 H 1.22 v 0.435 c 0.914,0.088 1.698,0.306 1.698,1.33" /></g><g
           transform="translate(626.9903,332.5124)"
           id="g176"><path
             id="path178"
             style="fill:#071e26;fill-opacity:1;fill-rule:nonzero;stroke:none"
             d="m 0,0 c -2.81,0 -4.487,2.069 -4.487,4.487 0,2.418 1.677,4.487 4.487,4.487 2.81,0 4.487,-2.069 4.487,-4.487 C 4.487,2.069 2.81,0 0,0 m 0,10.477 c -3.725,0 -5.989,-2.701 -5.989,-5.99 0,-3.289 2.264,-5.989 5.989,-5.989 3.725,0 5.99,2.7 5.99,5.989 0,3.289 -2.265,5.99 -5.99,5.99" /></g><g
           transform="translate(438.7832,341.8913)"
           id="g180"><path
             id="path182"
             style="fill:#071e26;fill-opacity:1;fill-rule:nonzero;stroke:none"
             d="m 0,0 h -4.013 l -9.973,-47.205 h -3.435 L -27.396,0 h -2.607 -12.018 -4.185 v -52.005 h 9.516 V -8.63 l -0.009,2.257 h 1.62 l 10.118,-45.632 H -6.373 L 3.677,-6.373 H 5.296 L 5.282,-8.63 v -43.375 h 9.516 V 0 h -2.78 z" /></g></g></g></g></svg>